<svg xmlns="http://www.w3.org/2000/svg" width="1200" height="800" viewBox="0 0 1200 800" role="img" aria-label="金山クラフトバーガー">
  <defs>
    <linearGradient id="bg" x1="0" x2="0" y1="0" y2="1">
      <stop offset="0%" stop-color="#fef3c7"/>
      <stop offset="100%" stop-color="#fde68a"/>
    </linearGradient>
    <linearGradient id="bunTop" x1="0" x2="0" y1="0" y2="1">
      <stop offset="0%" stop-color="#f8b56b"/>
      <stop offset="100%" stop-color="#e88934"/>
    </linearGradient>
    <linearGradient id="bunBottom" x1="0" x2="0" y1="0" y2="1">
      <stop offset="0%" stop-color="#e69b4e"/>
      <stop offset="100%" stop-color="#cc7a2f"/>
    </linearGradient>
    <linearGradient id="patty" x1="0" x2="0" y1="0" y2="1">
      <stop offset="0%" stop-color="#7b3f20"/>
      <stop offset="100%" stop-color="#4b230e"/>
    </linearGradient>
  </defs>

  <rect width="1200" height="800" fill="url(#bg)"/>
  <ellipse cx="610" cy="610" rx="360" ry="64" fill="#000" opacity="0.15"/>

  <path d="M300 430 C360 390, 840 390, 900 430 L900 470 L300 470 Z" fill="#7ed957"/>
  <path d="M330 455 C390 430, 810 430, 870 455 L870 485 L330 485 Z" fill="#5ec248"/>

  <rect x="330" y="480" width="540" height="36" rx="14" fill="#f7da6f"/>
  <rect x="320" y="505" width="560" height="80" rx="30" fill="url(#patty)"/>
  <rect x="350" y="575" width="500" height="26" rx="12" fill="#f97316"/>

  <path d="M250 280 C280 150, 920 150, 950 280 L950 430 L250 430 Z" fill="url(#bunTop)"/>
  <rect x="270" y="430" width="660" height="66" rx="30" fill="url(#bunBottom)"/>

  <g fill="#fff4b0">
    <ellipse cx="370" cy="255" rx="10" ry="5" transform="rotate(15 370 255)"/>
    <ellipse cx="430" cy="230" rx="10" ry="5" transform="rotate(-20 430 230)"/>
    <ellipse cx="500" cy="210" rx="10" ry="5" transform="rotate(25 500 210)"/>
    <ellipse cx="580" cy="200" rx="10" ry="5" transform="rotate(-10 580 200)"/>
    <ellipse cx="660" cy="205" rx="10" ry="5" transform="rotate(10 660 205)"/>
    <ellipse cx="740" cy="220" rx="10" ry="5" transform="rotate(-25 740 220)"/>
    <ellipse cx="810" cy="245" rx="10" ry="5" transform="rotate(15 810 245)"/>
  </g>

  <text x="600" y="730" text-anchor="middle" font-family="Arial, sans-serif" font-size="46" font-weight="700" fill="#6b3f1f">
    KANAYAMA CRAFT BURGER
  </text>
</svg>
